<svg width="350" height="350" xmlns="http://www.w3.org/2000/svg">

 <metadata id="metadata19">image/svg+xmlOpenclipart</metadata>
 <g>
  <title>Layer 1</title>
  <g   id="layer1">
   <g transform="matrix(9.7655 0 0 9.7655 -2.8077 -9219.8)" id="g8434">
    <ellipse fill="#ff8c00" cx="18.20839" cy="962.25222" ry="2.0618" rx="2.0633" id="path3089"/>
    <path fill="#ff8c00" d="m18.31739,947.65735l0,3.3496a11.266,11.258 0 0 1 11.154,11.213l3.3516,0a14.617,14.606 0 0 0 -14.506,-14.563l0.0004,0.0004z"  id="circle3412"/>
    <path fill="#ff8c00" d="m18.31739,954.39755l0,2.9492a4.9226,4.919 0 0 1 4.8105,4.873l2.9492,0a7.8711,7.8654 0 0 0 -7.76,-7.8217l0.0003,-0.0005z"  id="circle3428"/>
   </g>
   <g transform="matrix(9.7655 0 0 9.7655 -2.8077 -9219.8)" id="g8430">
    <path fill="#ff8c00" d="m18.13739,957.75925c-3.944,0.0057 -7.5137,0.47474 -10.127,1.2383c-1.3146,0.3841 -2.3876,0.844 -3.1562,1.375c-0.76861,0.5309 -1.2617,1.1648 -1.2617,1.8906c0,0.7259 0.49311,1.3617 1.2617,1.8926c0.76861,0.5309 1.8417,0.97918 3.1562,1.3633c2.6292,0.7682 6.2246,1.2402 10.197,1.2402c3.9727,0 7.57,-0.47204 10.199,-1.2402c1.3146,-0.3841 2.3857,-0.83238 3.1543,-1.3633c0.71878,-0.49648 1.1813,-1.0881 1.2402,-1.7559l-0.64453,0c-0.05963,0.38822 -0.35991,0.79958 -0.9668,1.2188c-0.67801,0.4684 -1.6967,0.90955 -2.9688,1.2812c-2.5442,0.7433 -6.0921,1.209 -10.014,1.209c-3.9216,0 -7.4675,-0.46568 -10.012,-1.209c-1.2721,-0.3717 -2.3005,-0.81285 -2.9785,-1.2812c-0.67801,-0.4683 -0.98438,-0.92797 -0.98438,-1.3555c0,-0.4274 0.30637,-0.89488 0.98438,-1.3633c0.67801,-0.4683 1.7064,-0.90965 2.9785,-1.2812c2.5286,-0.73883 6.0485,-1.2033 9.9414,-1.209l0,-0.65039l0.00123,-0.00001z"  id="path3302"/>
    <circle fill="#ff8c00" r="0.75893" cx="9.38319" cy="958.95222" id="path8416"/>
   </g>
   <g transform="matrix(9.7655 0 0 9.7655 -2.8077 -9219.8)" id="g8439">
    <g id="g8426">
     <path fill="#ff8c00"  d="m18.13739,957.18825c-0.72049,0.36795 -1.4472,0.75012 -2.1816,1.1738c-3.4404,1.9848 -6.3203,4.1911 -8.2129,6.1699c-0.94628,0.9894 -1.6489,1.914 -2.0488,2.7578c-0.39997,0.8438 -0.50968,1.639 -0.14648,2.2676s1.1078,0.93201 2.0391,1.0078c0.93131,0.076 2.0893,-0.06106 3.4199,-0.38476c2.6613,-0.6484 6.0127,-2.0366 9.4531,-4.0215c2.0899,-1.2056 3.9354,-2.4914 5.5156,-3.7598l-1.0293,0c-1.411,1.0794 -3.0286,2.1662 -4.8125,3.1953c-3.3962,1.9593 -6.7001,3.3277 -9.2754,3.9551c-1.2876,0.3137 -2.3914,0.43995 -3.2129,0.37305c-0.82153,-0.067 -1.3291,-0.31535 -1.543,-0.68555c-0.21387,-0.3702 -0.16922,-0.92367 0.18359,-1.668c0.35282,-0.7444 1.014,-1.6364 1.9297,-2.5938c1.8314,-1.9149 4.6702,-4.0894 8.0664,-6.0488c0.62532,-0.36075 1.2403,-0.68024 1.8555,-1l0,-0.73828l-0.00001,0.00014z" id="path3304"/>
     <circle fill="#ff8c00" r="0.75893" cx="6.07919" cy="969.65222" id="circle8418"/>
    </g>
    <g id="g8422">
     <path fill="#ff8c00"  d="m14.95439,948.10455c-0.17928,-0.01227 -0.35779,0.00188 -0.5332,0.04883c-0.70164,0.1879 -1.1876,0.82968 -1.502,1.709c-0.31431,0.8792 -0.47091,2.0283 -0.50195,3.3965c-0.06209,2.7365 0.4132,6.3316 1.4414,10.166s2.4148,7.1846 3.8379,9.5234c0.71153,1.1695 1.4246,2.087 2.1367,2.6914c0.71217,0.6045 1.4527,0.91642 2.1543,0.72852c0.70164,-0.1879 1.1876,-0.82783 1.502,-1.707c0.31431,-0.8793 0.48067,-2.034 0.51172,-3.4023c0.05491,-2.42 -0.33654,-5.5249 -1.1328,-8.8594l-0.66797,0c0.81117,3.3483 1.2082,6.4642 1.1543,8.8418c-0.03005,1.3241 -0.19344,2.4196 -0.4707,3.1953c-0.27726,0.7756 -0.64933,1.2019 -1.0625,1.3125s-0.93818,-0.07442 -1.5664,-0.60742c-0.62822,-0.5332 -1.3193,-1.4036 -2.0078,-2.5352c-1.377,-2.2632 -2.7448,-5.5645 -3.7598,-9.3496c-1.015,-3.785 -1.482,-7.3305 -1.4219,-9.9785c0.03005,-1.324 0.18954,-2.4314 0.4668,-3.207s0.64152,-1.1882 1.0547,-1.2988c0.41317,-0.1106 0.946,0.0624 1.5742,0.5957c0.6182,0.52469 1.2989,1.3866 1.9766,2.4922l0,-1.1836c-0.521,-0.7474 -1.043,-1.3562 -1.561,-1.7957c-0.534,-0.4534 -1.086,-0.7406 -1.623,-0.7774l0.0004,0.00077z" id="path3300"/>
     <circle fill="#ff8c00" cy="967.95222" r="0.75893" cx="23.53639" id="circle8420"/>
    </g>
   </g>
  </g>
  <rect id="svg_1" height="81" width="222" y="-120.545" x="-275.27499" opacity="NaN" stroke="#000" fill="#fff"/>
 </g>
</svg>